<svg width="15.000000" height="15.000000" viewBox="0 0 15 15" fill="none" xmlns="http://www.w3.org/2000/svg" xmlns:xlink="http://www.w3.org/1999/xlink">
	<desc>
			Created with Pixso.
	</desc>
	<defs>
		<clipPath id="clip9_907">
			<rect id="Social Icons" width="15.000000" height="15.000000" transform="translate(0.000000 -0.475586)" fill="white" fill-opacity="0"/>
		</clipPath>
	</defs>
	<rect id="Social Icons" width="15.000000" height="15.000000" transform="translate(0.000000 -0.475586)" fill="#FFFFFF" fill-opacity="0"/>
	<g clip-path="url(#clip9_907)">
		<path id="Vector" d="M7.5 -0.48C3.35 -0.48 0 2.88 0 7.02C0 10.54 2.42 13.49 5.68 14.3L5.68 9.31L4.14 9.31L4.14 7.02L5.68 7.02L5.68 6.03C5.68 3.48 6.84 2.3 9.34 2.3C9.82 2.3 10.64 2.39 10.98 2.48L10.98 4.56C10.8 4.54 10.49 4.53 10.11 4.53C8.88 4.53 8.4 5 8.4 6.21L8.4 7.02L10.85 7.02L10.43 9.31L8.4 9.31L8.4 14.46C12.12 14.02 15 10.85 15 7.02C15 2.88 11.64 -0.48 7.5 -0.48Z" fill="#535353" fill-opacity="1.000000" fill-rule="nonzero"/>
	</g>
</svg>
