<svg width="15.000000" height="15.000000" viewBox="0 0 15 15" fill="none" xmlns="http://www.w3.org/2000/svg" xmlns:xlink="http://www.w3.org/1999/xlink">
	<desc>
			Created with Pixso.
	</desc>
	<defs>
		<clipPath id="clip9_904">
			<rect id="Social Icons" width="15.000000" height="15.000000" transform="translate(0.000000 -0.475586)" fill="white" fill-opacity="0"/>
		</clipPath>
	</defs>
	<rect id="Social Icons" width="15.000000" height="15.000000" transform="translate(0.000000 -0.475586)" fill="#FFFFFF" fill-opacity="0"/>
	<g clip-path="url(#clip9_904)">
		<path id="Vector" d="M7.5 5.66L7.5 8.56L11.53 8.56C11.35 9.49 10.82 10.29 10.02 10.82L12.46 12.71C13.88 11.4 14.7 9.47 14.7 7.19C14.7 6.66 14.65 6.15 14.56 5.66L7.5 5.66Z" fill="#535353" fill-opacity="1.000000" fill-rule="nonzero"/>
		<path id="Vector" d="M3.29 8.45L2.74 8.87L0.8 10.38C2.03 12.83 4.56 14.52 7.5 14.52C9.52 14.52 11.22 13.85 12.46 12.71L10.02 10.82C9.36 11.27 8.5 11.54 7.5 11.54C5.54 11.54 3.89 10.22 3.29 8.45L3.29 8.45Z" fill="#535353" fill-opacity="1.000000" fill-rule="nonzero"/>
		<path id="Vector" d="M0.8 3.66C0.29 4.67 0 5.81 0 7.02C0 8.23 0.29 9.37 0.8 10.38C0.8 10.39 3.29 8.44 3.29 8.44C3.14 7.99 3.06 7.52 3.06 7.02C3.06 6.52 3.14 6.04 3.29 5.59L0.8 3.66Z" fill="#535353" fill-opacity="1.000000" fill-rule="nonzero"/>
		<path id="Vector" d="M7.5 2.51C8.6 2.51 9.58 2.89 10.37 3.62L12.51 1.48C11.21 0.26 9.52 -0.48 7.5 -0.48C4.56 -0.48 2.03 1.2 0.8 3.66L3.3 5.59C3.89 3.82 5.55 2.51 7.5 2.51Z" fill="#535353" fill-opacity="1.000000" fill-rule="nonzero"/>
	</g>
</svg>
