<svg width="15.000000" height="15.000000" viewBox="0 0 15 15" fill="none" xmlns="http://www.w3.org/2000/svg" xmlns:xlink="http://www.w3.org/1999/xlink">
	<desc>
			Created with Pixso.
	</desc>
	<defs>
		<clipPath id="clip9_905">
			<rect id="Social Icons" width="15.000000" height="15.000000" transform="translate(0.000000 -0.475586)" fill="white" fill-opacity="0"/>
		</clipPath>
	</defs>
	<rect id="Social Icons" width="15.000000" height="15.000000" transform="translate(0.000000 -0.475586)" fill="#FFFFFF" fill-opacity="0"/>
	<g clip-path="url(#clip9_905)">
		<path id="Vector" d="M13.88 -0.48L1.1 -0.48C0.49 -0.48 0 0 0 0.6L0 13.44C0 14.03 0.49 14.52 1.1 14.52L13.88 14.52C14.5 14.52 15 14.03 15 13.44L15 0.6C15 0 14.5 -0.48 13.88 -0.48ZM4.45 12.3L2.22 12.3L2.22 5.14L4.45 5.14L4.45 12.3ZM3.33 4.17C2.62 4.17 2.04 3.59 2.04 2.88C2.04 2.16 2.62 1.59 3.33 1.59C4.04 1.59 4.62 2.16 4.62 2.88C4.62 3.59 4.04 4.17 3.33 4.17ZM12.78 12.3L10.55 12.3L10.55 8.82C10.55 7.99 10.54 6.92 9.4 6.92C8.24 6.92 8.06 7.83 8.06 8.76L8.06 12.3L5.84 12.3L5.84 5.14L7.98 5.14L7.98 6.12L8 6.12C8.3 5.56 9.03 4.96 10.11 4.96C12.36 4.96 12.78 6.45 12.78 8.37L12.78 12.3Z" fill="#535353" fill-opacity="1.000000" fill-rule="nonzero"/>
	</g>
</svg>
