<svg width="15.000000" height="15.000000" viewBox="0 0 15 15" fill="none" xmlns="http://www.w3.org/2000/svg" xmlns:xlink="http://www.w3.org/1999/xlink">
	<desc>
			Created with Pixso.
	</desc>
	<defs>
		<clipPath id="clip9_906">
			<rect id="Social Icons" width="15.000000" height="15.000000" transform="translate(0.000000 -0.475586)" fill="white" fill-opacity="0"/>
		</clipPath>
	</defs>
	<rect id="Social Icons" width="15.000000" height="15.000000" transform="translate(0.000000 -0.475586)" fill="#FFFFFF" fill-opacity="0"/>
	<g clip-path="url(#clip9_906)">
		<path id="Vector" d="M7.5 0.87C9.5 0.87 9.74 0.88 10.52 0.91C11.26 0.95 11.65 1.07 11.92 1.17C12.26 1.31 12.52 1.47 12.78 1.73C13.04 2 13.2 2.24 13.34 2.59C13.44 2.86 13.56 3.25 13.59 3.98C13.63 4.78 13.64 5.01 13.64 7.01C13.64 9.02 13.63 9.25 13.59 10.04C13.56 10.78 13.44 11.17 13.34 11.43C13.2 11.78 13.04 12.04 12.78 12.3C12.51 12.56 12.26 12.72 11.92 12.86C11.65 12.96 11.25 13.08 10.52 13.11C9.73 13.15 9.5 13.16 7.5 13.16C5.49 13.16 5.25 13.15 4.47 13.11C3.73 13.08 3.34 12.96 3.07 12.86C2.73 12.72 2.47 12.56 2.21 12.3C1.95 12.03 1.79 11.78 1.65 11.43C1.55 11.17 1.43 10.77 1.4 10.04C1.36 9.25 1.35 9.01 1.35 7.01C1.35 5.01 1.36 4.77 1.4 3.98C1.43 3.25 1.55 2.86 1.65 2.59C1.79 2.24 1.95 1.99 2.21 1.73C2.48 1.47 2.73 1.31 3.07 1.17C3.34 1.07 3.74 0.95 4.47 0.91C5.25 0.88 5.49 0.87 7.5 0.87ZM7.5 -0.48C5.46 -0.48 5.2 -0.47 4.4 -0.44C3.61 -0.4 3.06 -0.27 2.58 -0.09C2.09 0.11 1.67 0.36 1.25 0.78C0.84 1.2 0.58 1.61 0.39 2.11C0.2 2.58 0.07 3.13 0.04 3.93C0 4.73 0 4.98 0 7.02C0 9.06 0 9.31 0.04 10.11C0.07 10.91 0.2 11.46 0.39 11.93C0.58 12.42 0.84 12.84 1.25 13.26C1.67 13.68 2.09 13.93 2.58 14.12C3.06 14.31 3.6 14.44 4.4 14.47C5.2 14.51 5.46 14.52 7.49 14.52C9.53 14.52 9.78 14.51 10.58 14.47C11.38 14.44 11.93 14.31 12.4 14.12C12.89 13.93 13.31 13.68 13.73 13.26C14.15 12.84 14.4 12.42 14.59 11.93C14.78 11.46 14.91 10.91 14.94 10.11C14.98 9.31 14.99 9.06 14.99 7.02C14.99 4.99 14.98 4.73 14.94 3.93C14.91 3.13 14.78 2.59 14.59 2.11C14.41 1.61 14.15 1.2 13.74 0.78C13.32 0.36 12.9 0.11 12.41 -0.09C11.93 -0.27 11.39 -0.4 10.59 -0.43C9.79 -0.47 9.53 -0.48 7.5 -0.48Z" fill="#535353" fill-opacity="1.000000" fill-rule="nonzero"/>
		<path id="Vector" d="M7.5 3.17C5.37 3.17 3.64 4.89 3.64 7.02C3.64 9.15 5.37 10.87 7.5 10.87C9.62 10.87 11.35 9.15 11.35 7.02C11.35 4.89 9.62 3.17 7.5 3.17ZM7.5 9.52C6.12 9.52 5 8.4 5 7.02C5 5.64 6.12 4.52 7.5 4.52C8.87 4.52 9.99 5.64 9.99 7.02C9.99 8.4 8.87 9.52 7.5 9.52Z" fill="#535353" fill-opacity="1.000000" fill-rule="nonzero"/>
		<path id="Vector" d="M12.4 3.01C12.4 3.51 12 3.91 11.5 3.91C11 3.91 10.6 3.51 10.6 3.01C10.6 2.52 11 2.12 11.5 2.12C12 2.12 12.4 2.52 12.4 3.01Z" fill="#535353" fill-opacity="1.000000" fill-rule="nonzero"/>
	</g>
</svg>
