<svg width="20.000000" height="20.000000" viewBox="0 0 20 20" fill="none" xmlns="http://www.w3.org/2000/svg" xmlns:xlink="http://www.w3.org/1999/xlink">
	<desc>
			Created with Pixso.
	</desc>
	<defs>
		<clipPath id="clip9_566">
			<rect id="link" width="20.000000" height="20.000000" transform="translate(0.000000 -0.904297)" fill="white" fill-opacity="0"/>
		</clipPath>
	</defs>
	<g clip-path="url(#clip9_566)">
		<path id="Icon" d="M14.4 1.59C14.33 1.59 14.24 1.59 14 1.59C13.9 1.59 13.86 1.59 13.82 1.59C13.02 1.61 12.24 1.93 11.66 2.49C11.63 2.51 11.6 2.54 11.53 2.61L9.28 4.87C9.11 5.04 9.05 5.1 9 5.15C7.87 6.39 7.87 8.29 9 9.53C9.05 9.58 9.11 9.65 9.28 9.81L9.53 10.06C9.82 10.35 9.82 10.83 9.53 11.12C9.23 11.41 8.76 11.41 8.46 11.12L8.2 10.85C8.05 10.71 7.96 10.62 7.89 10.54C6.24 8.72 6.24 5.96 7.89 4.15C7.96 4.06 8.05 3.97 8.2 3.83L10.47 1.55L10.48 1.55C10.54 1.48 10.58 1.44 10.62 1.4C11.48 0.59 12.61 0.12 13.79 0.09C13.85 0.09 13.9 0.09 13.99 0.09L14.03 0.09C14.23 0.09 14.36 0.09 14.47 0.1C16.92 0.21 18.87 2.17 18.99 4.61C19 4.73 19 4.86 19 5.06L19 5.09C19 5.18 19 5.24 18.99 5.3C18.97 6.48 18.5 7.61 17.68 8.46C17.64 8.5 17.6 8.54 17.54 8.61L17.53 8.61L16.28 9.87C15.98 10.16 15.51 10.16 15.21 9.87C14.92 9.58 14.92 9.1 15.21 8.81L16.47 7.55C16.54 7.48 16.57 7.45 16.6 7.43C17.16 6.84 17.48 6.07 17.49 5.26C17.5 5.22 17.5 5.19 17.5 5.08C17.5 4.85 17.5 4.76 17.49 4.69C17.41 3.01 16.07 1.67 14.4 1.59ZM10.46 8.12C10.17 7.83 10.17 7.35 10.46 7.06C10.76 6.77 11.23 6.77 11.53 7.06L11.79 7.33C11.94 7.47 12.03 7.56 12.1 7.65C13.75 9.46 13.75 12.22 12.1 14.04C12.03 14.12 11.94 14.21 11.79 14.35L9.52 16.63L9.51 16.64C9.45 16.7 9.41 16.74 9.37 16.78C8.51 17.59 7.38 18.06 6.2 18.09C6.14 18.09 6.09 18.09 6 18.09L5.96 18.09C5.76 18.09 5.63 18.09 5.52 18.09C3.07 17.97 1.12 16.01 1 13.57C1 13.45 1 13.32 1 13.12L1 13.09C1 13 1 12.94 1 12.88C1.02 11.7 1.49 10.57 2.31 9.72C2.35 9.68 2.39 9.64 2.45 9.57L3.71 8.31C4.01 8.02 4.48 8.02 4.78 8.31C5.07 8.6 5.07 9.08 4.78 9.37L3.52 10.63C3.45 10.7 3.42 10.73 3.39 10.75C2.83 11.34 2.52 12.11 2.5 12.92C2.5 12.96 2.5 13 2.5 13.1C2.5 13.33 2.5 13.42 2.5 13.5C2.58 15.17 3.92 16.51 5.59 16.59C5.66 16.59 5.75 16.59 5.99 16.59C6.09 16.59 6.13 16.59 6.17 16.59C6.97 16.57 7.75 16.25 8.33 15.69C8.36 15.67 8.39 15.64 8.46 15.57L10.71 13.31C10.88 13.15 10.94 13.08 10.99 13.03C12.12 11.79 12.12 9.89 10.99 8.65C10.94 8.6 10.88 8.54 10.71 8.37L10.46 8.12Z" fill="#FFFFFF" fill-opacity="1.000000" fill-rule="evenodd"/>
	</g>
</svg>
