<svg width="20.000000" height="20.000000" viewBox="0 0 20 20" fill="none" xmlns="http://www.w3.org/2000/svg" xmlns:xlink="http://www.w3.org/1999/xlink">
	<desc>
			Created with Pixso.
	</desc>
	<defs>
		<clipPath id="clip9_764">
			<rect id="arrow-right" width="20.000000" height="20.000000" fill="white" fill-opacity="0"/>
		</clipPath>
	</defs>
	<g clip-path="url(#clip9_764)">
		<path id="Icon" d="M11.73 5.2C12.03 4.91 12.51 4.93 12.79 5.23L16.79 9.48C17.06 9.77 17.06 10.22 16.79 10.51L12.79 14.76C12.51 15.06 12.03 15.08 11.73 14.79C11.43 14.51 11.41 14.03 11.7 13.73L14.51 10.75L3.75 10.75C3.33 10.75 3 10.41 3 10C3 9.58 3.33 9.25 3.75 9.25L14.51 9.25L11.7 6.26C11.41 5.96 11.43 5.48 11.73 5.2Z" fill="#4A4A4A" fill-opacity="1.000000" fill-rule="evenodd"/>
	</g>
</svg>
