<svg width="27.000000" height="27.000000" viewBox="0 0 27 27" fill="none" xmlns="http://www.w3.org/2000/svg" xmlns:xlink="http://www.w3.org/1999/xlink">
	<desc>
			Created with Pixso.
	</desc>
	<defs>
		<clipPath id="clip9_908">
			<rect id="globe" width="27.000000" height="27.000000" transform="translate(-0.742676 0.000000)" fill="white" fill-opacity="0"/>
		</clipPath>
	</defs>
	<g clip-path="url(#clip9_908)">
		<path id="Icon" d="M12.75 24.63C6.6 24.63 1.61 19.65 1.61 13.5C1.61 7.34 6.6 2.36 12.75 2.36C18.9 2.36 23.89 7.34 23.89 13.5C23.89 19.65 18.9 24.63 12.75 24.63ZM1.61 13.5L23.89 13.5M12.75 2.36C15.18 2.36 17.14 7.34 17.14 13.5C17.14 19.65 15.18 24.63 12.75 24.63M12.75 24.63C10.33 24.63 8.36 19.65 8.36 13.5C8.36 7.34 10.33 2.36 12.75 2.36" stroke="#000000" stroke-opacity="1.000000" stroke-width="1.500000" stroke-linejoin="round"/>
	</g>
</svg>
