<svg viewBox="0 0 15 15" fill="none" xmlns="http://www.w3.org/2000/svg"><defs><clipPath id="a"><path fill="#fff" fill-opacity="0" d="M0-.5h15v15H0z"/></clipPath></defs><path d="M0-.5h15v15H0z"/><g clip-path="url(#a)" fill="#535353"><path d="M7.5 5.7v2.9h4q-.3 1.4-1.5 2.2l2.5 2a7 7 0 0 0 2.2-5.6l-.1-1.5z"/><path d="m3.3 8.5-.6.4-1.9 1.5a8 8 0 0 0 6.7 4.1q3 0 5-1.8L10 10.8q-1 .7-2.5.7c-2 0-3.6-1.3-4.2-3"/><path d="M.8 3.7a7 7 0 0 0 0 6.7l2.5-2a4 4 0 0 1 0-2.8zm6.7-1.2q1.6 0 2.9 1.1l2.1-2.1q-2-1.9-5-2C4.5-.5 2 1.2.8 3.7l2.5 1.9c.6-1.8 2.3-3 4.2-3"/></g></svg>