<svg viewBox="0 0 15 15" fill="none" xmlns="http://www.w3.org/2000/svg"><defs><clipPath id="a"><path fill="#fff" fill-opacity="0" d="M0-.5h15v15H0z"/></clipPath></defs><path d="M0-.5h15v15H0z"/><g clip-path="url(#a)"><path d="M13.9-.5H1A1 1 0 0 0 0 .6v12.8q.1 1 1.1 1.1h12.8q1-.1 1.1-1V.5q-.1-1-1.1-1M4.5 12.3H2.2V5.1h2.3zM3.3 4.2a1.3 1.3 0 1 1 0-2.6 1.3 1.3 0 0 1 0 2.6m9.5 8.1h-2.2V8.8c0-.8 0-1.9-1.2-1.9S8.1 8 8.1 8.8v3.5H5.8V5.1H8v1q.4-1 2.1-1.1c2.3 0 2.7 1.5 2.7 3.4z" fill="#535353"/></g></svg>