<svg viewBox="0 0 15 15" fill="none" xmlns="http://www.w3.org/2000/svg"><defs><clipPath id="a"><path fill="#fff" fill-opacity="0" d="M0-.5h15v15H0z"/></clipPath></defs><path d="M0-.5h15v15H0z"/><g clip-path="url(#a)" fill="#535353"><path d="M7.5.9h3q1.1 0 1.4.3a3 3 0 0 1 1.4 1.4q.2.3.3 1.4a47 47 0 0 1-.3 7.4A2 2 0 0 1 12 13l-1.4.2a46 46 0 0 1-7.4-.2 3 3 0 0 1-1.5-1.5l-.2-1.4a47 47 0 0 1 .3-7.4q.1-.5.5-.9l.9-.5L4.5.9zm0-1.4H4.4L2.6 0A4 4 0 0 0 .4 2.1L0 4v6.2q0 1.2.4 1.8a4 4 0 0 0 2.2 2.2l1.8.4a48 48 0 0 0 8-.4q.8-.2 1.3-.8.7-.7.9-1.4t.3-1.8a48 48 0 0 0-.3-8q-.2-.7-.9-1.3T12.4 0t-1.8-.3z"/><path d="M7.5 3.2a3.9 3.9 0 1 0 0 7.7 3.9 3.9 0 0 0 0-7.7m0 6.3a2.5 2.5 0 1 1 0-5 2.5 2.5 0 0 1 0 5M12.4 3q0 .9-.9 1a.9.9 0 1 1 0-1.9q.8 0 .9 1"/></g></svg>