<svg viewBox="0 0 20 20" fill="none" xmlns="http://www.w3.org/2000/svg"><defs><clipPath id="a"><path fill="#fff" fill-opacity="0" d="M0-.9h20v20H0z"/></clipPath></defs><g clip-path="url(#a)"><path d="M14.4 1.6h-.6a3 3 0 0 0-2.3 1L9.3 5l-.3.3a3.3 3.3 0 0 0 0 4.3l.3.3.2.3q.5.5 0 1t-1 0l-.3-.2-.3-.4a4.7 4.7 0 0 1 .3-6.7l2.3-2.2.1-.2Q12 .2 13.8.1h.7a4.7 4.7 0 0 1 4.5 5v.2q0 1.8-1.3 3.2l-.2.1-1.2 1.3q-.6.5-1 0a1 1 0 0 1 0-1l1.2-1.4h.1q.9-1 .9-2.2v-.6c0-1.7-1.4-3-3.1-3.1m-4 6.5a1 1 0 0 1 0-1q.6-.4 1.1 0l.3.2.3.4a4.7 4.7 0 0 1-.3 6.7l-2.3 2.2-.1.2Q8 18 6.2 18h-.7c-2.4 0-4.4-2-4.5-4.4v-.7Q1 11 2.3 9.7l.2-.1 1.2-1.3q.6-.5 1 0 .6.6 0 1l-1.2 1.3-.1.2q-.9.8-.9 2.1v.6a3 3 0 0 0 3 3h.7a3 3 0 0 0 2.3-1l2.2-2.2.3-.3a3.3 3.3 0 0 0 0-4.3l-.3-.3z" fill="#FFF" fill-rule="evenodd"/></g></svg>