<svg viewBox="0 0 20 20" fill="none" xmlns="http://www.w3.org/2000/svg"><defs><clipPath id="a"><path fill="#fff" fill-opacity="0" d="M-.5-.9h20v20h-20z"/></clipPath></defs><g clip-path="url(#a)"><path d="m9.6 1.6-.3.1-1.8 3.8q-.4.9-1.3 1l-4 .6h-.1v.5l2.9 3q.6.6.5 1.5l-.7 4.2v.1q0 .3.3.2l3.6-2q.8-.5 1.6 0l3.6 2h.1l.2-.1v-.2l-.7-4.2q0-1 .5-1.6l3-2.9v-.2q0-.3-.2-.3l-4-.6q-.9-.1-1.3-1L9.7 1.7zm-1.7-.5C8.3.2 9.4-.2 10.3.3l.8.8 1.7 3.8.2.1 4 .6q1.6.5 1.5 2 0 .6-.5 1l-3 3v.3l.7 4.1q.1 1.7-1.4 2-.6.1-1.1-.1l-3.6-2h-.2l-3.6 2c-.8.5-1.9 0-2.3-.8q-.3-.5-.2-1l.7-4.2-.1-.3-2.9-3a1.8 1.8 0 0 1 1-3L6 5l.2-.1z" fill="#FFF" fill-rule="evenodd"/></g></svg>